<svg width="15" height="21" viewBox="0 0 15 21" fill="none" xmlns="http://www.w3.org/2000/svg">
<path fill-rule="evenodd" clip-rule="evenodd" d="M5.5732 8.77117C5.83952 8.77117 6.10585 8.77117 6.36986 8.77117C6.52734 9.2633 6.2367 9.19498 6.09774 9.46709C6.00858 9.64079 6.12554 10.1387 6.1568 10.3483C6.32818 11.5433 6.49492 12.7371 6.66745 13.9298C6.75314 14.5169 6.86199 14.2552 5.97153 15.1688C5.88468 15.1283 5.57899 14.7612 5.47245 14.6547C5.14013 14.327 5.20265 14.437 5.27097 13.9669C5.34624 13.4817 5.94026 9.69405 5.86036 9.49489C5.7492 9.22046 5.41224 9.27372 5.5732 8.77117ZM10.484 9.02823L11.4671 9.76237L13.1878 7.65608L13.7182 8.08683L11.789 10.4479L11.5806 10.7026L11.3189 10.5069L10.0741 9.57711L10.484 9.02823ZM11.8655 5.91915C12.7316 5.91915 13.5167 6.27001 14.0829 6.83624C14.6492 7.40247 15 8.18872 15 9.05254C15 9.91637 14.648 10.7015 14.0829 11.2677C13.5352 11.8154 12.7802 12.1628 11.95 12.1848C11.9604 13.2895 11.9384 13.3682 11.9396 15.3923C11.9442 15.7825 11.921 16.0315 11.4729 16.0315C8.16352 16.0315 4.85179 16.0303 1.54008 16.0303C0.171387 16.0303 1.0542e-05 16.1971 0.0057999 15.3483C0.0185373 13.7144 0.0057999 12.9409 0.00348402 11.8212C1.0195e-05 10.6702 0.280233 9.71489 1.16027 8.92517C1.93262 8.22578 3.20983 7.98956 4.21955 7.99419C4.21955 7.93397 3.92891 7.62712 3.86059 7.53333C3.74132 7.36542 3.62785 7.18594 3.52711 7.00646C3.42868 6.82466 3.37889 6.56297 3.24225 6.4437C3.04077 6.26769 2.98171 6.32212 2.78602 6.04653C2.51969 5.68177 2.34484 5.21975 2.32053 4.76584C2.26842 3.9078 2.83466 3.95991 2.81381 3.60789C2.77213 3.0185 2.76981 2.66764 2.99329 2.10025C3.47616 0.883251 4.73484 -0.0326783 6.0572 0.000893889C7.38073 0.0356322 7.95044 0.870509 8.39972 1.11484C9.50671 1.72044 9.21838 2.59816 9.13501 3.60788C9.10606 3.96222 9.69314 3.902 9.61787 4.79825C9.57966 5.26374 9.4326 5.66902 9.15933 6.04651C8.95669 6.32789 8.86174 6.28736 8.68225 6.46453C8.56299 6.58496 8.48888 6.8617 8.39972 7.0354C8.32445 7.17203 7.72348 7.97912 7.72348 7.99418C8.12528 7.99765 8.51204 8.02891 8.88374 8.0926C9.03774 7.61321 9.30291 7.18361 9.6503 6.83623C10.2154 6.27 11.0016 5.91915 11.8655 5.91915ZM11.2251 12.1199C10.6172 11.9937 10.073 11.6903 9.65147 11.2677C9.08524 10.7015 8.73322 9.91637 8.73322 9.05254C8.73322 8.96686 8.7367 8.88348 8.74365 8.79896C8.13341 8.70632 7.39696 8.6739 7.09705 8.77116C7.0461 8.92054 7.19084 9.25519 6.94189 9.58404C6.70798 9.89321 6.8122 9.96269 6.87009 10.3587C6.95926 10.9666 7.0461 11.5757 7.13063 12.1859C7.21748 12.7962 7.30548 13.4064 7.39348 14.0132C7.43517 14.3177 7.54402 14.562 7.32285 14.8261C7.22211 14.9476 6.88399 15.2082 6.85157 15.3321C7.4537 15.3367 8.05467 15.3437 8.65911 15.3483C8.65911 14.3397 8.65911 13.3311 8.65911 12.3214C8.65448 12.0424 8.6128 11.6799 8.99608 11.6799C9.4002 11.6799 9.34114 12.0771 9.33767 12.3643C9.33767 13.3601 9.33767 14.3548 9.33767 15.3483C9.96296 15.3483 10.5871 15.3483 11.2159 15.3483C11.2159 14.4532 11.2159 13.5593 11.2159 12.6653L11.2251 12.1199ZM13.6661 7.25309C13.2052 6.79223 12.5683 6.50738 11.8655 6.50738C11.1626 6.50738 10.5257 6.79223 10.0672 7.25193C9.60631 7.7128 9.32145 8.35082 9.32145 9.05254C9.32145 9.75425 9.60631 10.3911 10.0672 10.852C10.5257 11.3117 11.1626 11.5977 11.8655 11.5977C12.5672 11.5977 13.2052 11.3128 13.6661 10.852C14.1234 10.3934 14.4118 9.75425 14.4118 9.05254C14.4118 8.35082 14.1269 7.71395 13.6661 7.25309ZM0 20.104H7.72813V20.6922H0V20.104ZM0 17.8703H11.9407V18.4585H0V17.8703ZM5.09032 15.3321C4.49051 15.3367 3.88838 15.3437 3.28856 15.3483C3.28856 14.3548 3.28856 13.3601 3.28856 12.3643C3.28856 12.0771 3.34993 11.6799 2.94465 11.6799C2.5579 11.6799 2.60306 12.0424 2.60538 12.3214C2.60538 13.33 2.60538 14.3397 2.60538 15.3483C1.97893 15.3483 1.3548 15.3483 0.730664 15.3483C0.730664 14.4532 0.730664 13.5593 0.730664 12.6653C0.730664 11.798 0.613712 11.0477 1.01436 10.2614C1.305 9.68479 1.82839 9.23551 2.42242 8.98423C3.14382 8.77117 3.9567 8.70517 4.84137 8.77117C4.86568 8.89739 4.80547 8.95065 4.85063 9.18224C4.87842 9.32814 4.89579 9.43467 4.98264 9.55857C5.23854 9.92217 5.14591 9.86079 5.07759 10.3217C4.9039 11.541 4.73021 12.7568 4.55651 13.9761C4.51599 14.2702 4.40019 14.5481 4.59936 14.8006C4.70705 14.9407 5.05906 15.2012 5.09032 15.3321ZM8.8849 4.50879C9.00764 4.81565 8.77489 5.48725 8.52362 5.70958C8.32909 5.88096 8.16582 5.78137 8.04886 6.04423C7.96665 6.22023 7.90528 6.43098 7.81612 6.6232C6.98356 8.33695 5.19105 8.63687 4.12459 6.62551C4.03195 6.44372 3.97521 6.23297 3.89184 6.04886C3.761 5.75937 3.62783 5.89253 3.4194 5.70958C3.30013 5.31125 3.17971 4.90944 3.05813 4.50879C3.24224 4.46363 3.55025 4.63848 3.62204 4.2552C3.68921 3.90203 3.16929 3.22 3.81195 2.02385C4.19638 1.29898 5.21537 0.637791 6.04446 0.699163C6.87933 0.758218 7.30777 1.12876 7.8358 1.59425C8.01759 1.75289 8.21097 1.74363 8.36729 1.95669C8.80268 2.54145 8.26887 3.95762 8.32445 4.25521C8.39277 4.63848 8.69963 4.46363 8.8849 4.50879Z" fill="#4D4D4D"/>
</svg>
